# xmcd
#
# Track frame offsets: 
#        150
#        13823
#        29438
#        44373
#        59095
#        75443
#        90963
#        104195
#        118698
#        130680
#
# Disc length: 1952 seconds
#
# Revision: 7
# Processed by: cddbd v1.5.2PL0 Copyright (c) Steve Scherf et al.
# Submitted via: ExactAudioCopyFreeDBPlugin 1.0
#
DISCID=81079e0a
DTITLE=Tanya Tucker - Tennessee Woman
DYEAR=1990
DGENRE=Country
TTITLE0=Take Another Run
TTITLE1=Shotgun
TTITLE2=As Long As There's A Heartbeat
TTITLE3=Tanya Tucker and T. Graham Brown - Don't Go Out 
TTITLE4=There's A Tennessee Woman - Ben's Song
TTITLE5=Goodbye Baby
TTITLE6=It Won't Be Me
TTITLE7=Your Old Magic
TTITLE8=Walking Shoes
TTITLE9=Oh What It Did To Me
EXTD=
EXTT0=
EXTT1=
EXTT2=
EXTT3=
EXTT4=
EXTT5=
EXTT6=
EXTT7=
EXTT8=
EXTT9=
PLAYORDER=
